<svg width="198.201" height="72.501" viewBox="0 0 198.201 72.501" xmlns="http://www.w3.org/2000/svg"><g id="svgGroup" stroke-linecap="round" fill-rule="evenodd" font-size="9pt" stroke="#000" stroke-width="0.25mm" fill="#000" style="stroke:#000;stroke-width:0.25mm;fill:#000"><path d="M 139.8 71.8 L 131.1 71.8 Q 127.706 71.8 126.991 69.183 A 6.016 6.016 0 0 1 126.8 67.6 L 126.8 63.9 L 126.5 63.9 A 14.222 14.222 0 0 1 116.263 71.946 A 24.239 24.239 0 0 1 110.9 72.5 A 21.796 21.796 0 0 1 105.583 71.887 A 15.226 15.226 0 0 1 98.25 67.75 A 16.262 16.262 0 0 1 93.927 59.35 A 23.196 23.196 0 0 1 93.5 55.1 L 93.5 29.3 L 87.8 29.3 A 1.728 1.728 0 0 1 87.325 29.241 Q 86.793 29.088 86.651 28.545 A 1.768 1.768 0 0 1 86.6 28.1 L 86.6 23.8 A 1.728 1.728 0 0 1 86.66 23.325 Q 86.812 22.793 87.356 22.651 A 1.768 1.768 0 0 1 87.8 22.6 L 97.4 22.6 Q 100.795 22.6 101.51 25.218 A 6.016 6.016 0 0 1 101.7 26.8 L 101.7 53.1 A 19.333 19.333 0 0 0 102.002 56.627 Q 102.368 58.6 103.18 60.16 A 9.82 9.82 0 0 0 104.5 62.1 A 8.991 8.991 0 0 0 109.155 64.887 Q 110.76 65.3 112.7 65.3 A 15.831 15.831 0 0 0 118.025 64.443 A 13.401 13.401 0 0 0 124.2 59.9 A 27.488 27.488 0 0 0 124.812 59.091 Q 125.726 57.829 125.937 57.153 A 1.209 1.209 0 0 0 126 56.8 L 126 29.3 L 120.6 29.3 A 1.728 1.728 0 0 1 120.125 29.241 Q 119.593 29.088 119.451 28.545 A 1.768 1.768 0 0 1 119.4 28.1 L 119.4 23.8 A 1.728 1.728 0 0 1 119.46 23.325 Q 119.612 22.793 120.156 22.651 A 1.768 1.768 0 0 1 120.6 22.6 L 133 22.6 A 1.728 1.728 0 0 1 133.475 22.66 Q 134.008 22.812 134.149 23.356 A 1.768 1.768 0 0 1 134.2 23.8 L 134.2 65.1 L 139.8 65.1 Q 141.1 65.1 141.1 66.3 L 141.1 70.6 Q 141.1 71.544 140.296 71.746 A 2.046 2.046 0 0 1 139.8 71.8 Z M 13.2 71.8 L 8.1 71.8 A 1.728 1.728 0 0 1 7.625 71.741 Q 7.093 71.588 6.951 71.045 A 1.768 1.768 0 0 1 6.9 70.6 L 6.9 6.7 L 1.3 6.7 Q 0 6.7 0 5.5 L 0 1.2 Q 0 0.256 0.805 0.055 A 2.046 2.046 0 0 1 1.3 0 L 13.6 0 Q 14.9 0 14.9 1.2 L 14.9 27.8 L 14.6 31.7 L 14.9 31.7 A 14.757 14.757 0 0 1 18.745 26.353 A 19.088 19.088 0 0 1 20.8 24.75 A 16.08 16.08 0 0 1 26.662 22.335 A 22.537 22.537 0 0 1 31.2 21.9 A 23.75 23.75 0 0 1 38.887 23.092 A 19.795 19.795 0 0 1 47.45 28.85 A 23.843 23.843 0 0 1 52.865 39.829 A 34.605 34.605 0 0 1 53.6 47.15 A 33.656 33.656 0 0 1 52.721 55.051 A 23.772 23.772 0 0 1 47.35 65.5 A 20.533 20.533 0 0 1 32.336 72.473 A 27.602 27.602 0 0 1 31.1 72.5 A 22.19 22.19 0 0 1 26.328 72.013 A 15.726 15.726 0 0 1 20.6 69.55 A 18.591 18.591 0 0 1 16.907 66.176 A 15.532 15.532 0 0 1 14.6 62.4 L 14.5 62.4 L 14.5 70.6 Q 14.5 71.544 13.696 71.746 A 2.046 2.046 0 0 1 13.2 71.8 Z M 168.8 71.8 L 149.7 71.8 Q 148.4 71.8 148.4 70.6 L 148.4 66.3 Q 148.4 65.356 149.205 65.155 A 2.046 2.046 0 0 1 149.7 65.1 L 155.2 65.1 L 155.2 29.3 L 149.7 29.3 Q 148.4 29.3 148.4 28.1 L 148.4 23.8 Q 148.4 22.856 149.205 22.655 A 2.046 2.046 0 0 1 149.7 22.6 L 161.4 22.6 Q 162.7 22.6 162.7 23.8 L 162.7 36.3 L 163 36.3 A 6.107 6.107 0 0 1 163.288 35.305 Q 163.675 34.266 164.493 32.882 A 31.006 31.006 0 0 1 165.1 31.9 Q 166.9 29.1 169.05 27.25 A 13.647 13.647 0 0 1 170.929 25.913 Q 172.718 24.838 175.25 23.9 Q 179.3 22.4 184.4 22.4 Q 185.432 22.4 185.645 23.219 A 1.915 1.915 0 0 1 185.7 23.7 L 185.7 29 Q 185.7 30.032 184.882 30.245 A 1.915 1.915 0 0 1 184.4 30.3 L 182.3 30.3 A 21.731 21.731 0 0 0 176.229 31.106 A 16.466 16.466 0 0 0 168.6 35.8 Q 163.5 41.3 163.5 48.3 L 163.5 65.1 L 168.8 65.1 Q 170.1 65.1 170.1 66.3 L 170.1 70.6 Q 170.1 71.544 169.296 71.746 A 2.046 2.046 0 0 1 168.8 71.8 Z M 80.2 71.8 L 61.1 71.8 Q 59.8 71.8 59.8 70.6 L 59.8 66.3 Q 59.8 65.356 60.605 65.155 A 2.046 2.046 0 0 1 61.1 65.1 L 66.6 65.1 L 66.6 6.7 L 61.1 6.7 Q 59.8 6.7 59.8 5.5 L 59.8 1.2 Q 59.8 0.256 60.605 0.055 A 2.046 2.046 0 0 1 61.1 0 L 72.2 0 Q 74.495 0 74.839 1.807 A 3.71 3.71 0 0 1 74.9 2.5 L 74.9 65.1 L 80.2 65.1 Q 81.5 65.1 81.5 66.3 L 81.5 70.6 Q 81.5 71.544 80.696 71.746 A 2.046 2.046 0 0 1 80.2 71.8 Z M 18.469 59.735 A 16.241 16.241 0 0 0 19.05 60.45 A 14.212 14.212 0 0 0 24.682 64.532 A 14.784 14.784 0 0 0 30.1 65.5 A 14.284 14.284 0 0 0 36.329 64.165 A 14.264 14.264 0 0 0 41.1 60.4 A 17.699 17.699 0 0 0 44.796 52.795 A 25.809 25.809 0 0 0 45.4 47.05 A 25.18 25.18 0 0 0 44.832 41.547 Q 43.819 37.021 41 33.85 A 14.611 14.611 0 0 0 35.805 30.025 A 14.504 14.504 0 0 0 30.05 28.9 A 14.043 14.043 0 0 0 19.659 33.207 A 17.261 17.261 0 0 0 19.1 33.8 A 16.52 16.52 0 0 0 15.399 40.944 Q 14.7 43.723 14.7 47.05 Q 14.7 54.822 18.469 59.735 Z M 196.85 64.45 Q 198.2 65.8 198.2 67.8 Q 198.2 69.8 196.85 71.15 Q 195.5 72.5 193.5 72.5 Q 191.5 72.5 190.1 71.15 Q 188.7 69.8 188.7 67.8 Q 188.7 65.8 190.1 64.45 Q 191.5 63.1 193.5 63.1 Q 195.5 63.1 196.85 64.45 Z" vector-effect="non-scaling-stroke"/></g></svg>